*********** ****    ****      ***      ******** *********** ****    *** **********
          *+*     +*+*+* *+*+*+   *+* *+*   *+*    *+*    *+*     *+*+*   *+* *+*        
          +*+     +*+ +*+*+ +*+  +*+   +*+  +*+           +*+     *+*+*+  +*+ +*+        
          +$+     +$+  +*+  +$+ +$++*++$++* *$*           +$+     +$+ +*+ +$+ +$++*++$  
          +$+     +$+       +$+ +$+     +$+ +$+   +$+$    +$+     +$+  +$+$+$ +$+        
          $+$     $+$       $+$ $+$     $+$ $+$    $+$    $+$     $+$   $+$+$ $+$        
      $$$$$$$$$$$ $$$       $$$ $$$     $$$  $$$$$$$$ $$$$$$$$$$$ $$$    $$$$ $$$$$$$$$$    
                                               



                          Another Fine Release Brought to you from - IMAGiNE                  
                                               

********************************************************************************************************************                                
                             The Last Airbender CAM XViD - IMAGiNE
********************************************************************************************************************

Ripper ...........: IMAGiNE                                        IMDB Rating.......:4.4/10                            
Video Codec.......: XVID                                         Release Date......:07/07/10
Audio Codec.......:MP3                                           Theatre Date......:01/07/10
Audio Bitrate.....:128                                              Runtime.......:1h 34mn
Subtitles.........:NIL                                                 Language..........:ENGLISH
Resolution...... 688 x 288                                      IMDb URL..........:http://www.imdb.com/title/tt0938283/


DETAILS:

Video
ID                               : 0
Format                           : MPEG-4 Visual
Format profile                   : Advanced Simple@L5
Format settings, BVOP            : Yes
Format settings, QPel            : No
Format settings, GMC             : No warppoints
Format settings, Matrix          : Default (MPEG)
Muxing mode                      : Packed bitstream
Codec ID                         : XVID
Codec ID/Hint                    : XviD
Duration                         : 1h 34mn
Bit rate                         : 1 933 Kbps
Width                            : 688 pixels
Height                           : 288 pixels
Display aspect ratio             : 2.35
Frame rate                       : 23.976 fps
Resolution                       : 24 bits
Colorimetry                      : 4:2:0
Scan type                        : Progressive
Bits/(Pixel*Frame)               : 0.407
Stream size                      : 1.28 GiB (93%)
Writing library                  : XviD 1.2.1 (UTC 2008-12-04)

Audio
ID                               : 1
Format                           : MPEG Audio
Format version                   : Version 1
Format profile                   : Layer 3
Codec ID                         : 55
Codec ID/Hint                    : MP3
Duration                         : 1h 34mn
Bit rate mode                    : Constant
Bit rate                         : 128 Kbps
Channel(s)                       : 2 channels
Sampling rate                    : 44.1 KHz
Resolution                       : 16 bits
Stream size                      : 86.7 MiB (6%)
Alignment                        : Split accross interleaves
Interleave, duration             : 42 ms (1.00 video frame)
Interleave, preload duration     : 500 ms
 
http://imagine.takagari.com/airbender/vlcsnap-505401.png 
http://imagine.takagari.com/airbender/vlcsnap-505864.png 
http://imagine.takagari.com/airbender/vlcsnap-506395.png 
http://imagine.takagari.com/airbender/vlcsnap-507048.png 
http://imagine.takagari.com/airbender/vlcsnap-507287.png


NOTES:

IMAGiNE bringing you another release.....The Last Airbender

Right sourced used was a dvdr we were sent from a special friend ....cheers m8ty ;-)
Now the vobs themselfs had the interlace issues like with kingdoms release,and whilst you cam make it better
we can't see anyway to remove them.......guessing the original files off the camera were encoded bad so
Anyway work done......first thing was cut the film up to 10 parts where there was some major camera movement and then
crop them all differently and then resize them the same,so yes a few parts the AR will be off slightly.
Some parts we used a quad filter as the borders were at an angle so this allowed us to crop it without losing any footage
Once done it was a case of adding our normal filters to ....messing with the chroma,rgb colours,brightness etc...... and then
encoding each part on their own and then join them together afterwards
The audio on the dvdr was some nice AC3 cam audio so we just encoded it to mp3 for this xvid release.

Anyway enjoy